<?xml version="1.0" encoding="utf-8"?>
<!-- Generator: Adobe Illustrator 24.0.1, SVG Export Plug-In . SVG Version: 6.00 Build 0)  -->
<svg version="1.1" id="svg" xmlns="http://www.w3.org/2000/svg" xmlns:xlink="http://www.w3.org/1999/xlink" x="0px" y="0px"
	 viewBox="0 0 274 316.6" style="enable-background:new 0 0 274 316.6;" xml:space="preserve">
<style type="text/css">
	.st0{display:none;}
	.st1{display:inline;fill-rule:evenodd;clip-rule:evenodd;fill:#EDBB18;}
	.st2{fill:#F5D8A1;stroke:#BC6F27;stroke-width:14;stroke-miterlimit:10;}
	.st3{fill:#BC6F27;}
	.st4{fill:#EDBB18;}
</style>
<g id="SP__T" class="st0">
	<path id="path0" class="st1" d="M464-760.1c-2.6,0.4-7.6,1.1-11.3,1.7c-3.6,0.5-8.2,1.4-10.1,2c-1.9,0.6-4.8,1.5-6.4,2
		c-5.3,1.6-10.4,3.6-11.9,4.6c-0.8,0.5-2.4,1.3-3.5,1.6c-1.1,0.4-2.4,1.1-3,1.5c-0.5,0.5-1.8,1.3-2.7,1.8
		c-6,3.4-15.2,11.8-19.2,17.7s-5.6,8.6-5.6,9.4c0,0.5-0.5,1.7-1.1,2.6c-0.6,1-1.5,3.5-2.1,5.5c-0.5,2.1-1.3,4.5-1.8,5.4
		c-2.2,4.3-2.2,32.6,0,36c0.5,0.7,1.3,2.9,1.8,4.9s1.4,4.4,2.1,5.2c0.6,0.9,1.1,1.8,1.1,2.1c0,0.3,0.7,1.5,1.6,2.6
		c0.9,1.1,2.2,3.1,3,4.4c2.4,4,17.6,17.9,19.5,17.9c0.3,0,0.9,0.4,1.3,0.8c1.3,1.6,19.6,11.3,22.8,12.1c0.9,0.2,2.3,0.9,3,1.5
		c0.8,0.6,2.2,1.2,3.2,1.4s3.2,1,4.7,1.7c1.6,0.8,4.1,1.8,5.5,2.2c4.8,1.5,11.3,3.9,13,4.7c1,0.5,2.9,1.1,4.4,1.4
		c1.4,0.3,3.8,1.1,5.2,1.8c1.4,0.6,3.1,1.2,3.7,1.2s2.4,0.7,3.8,1.4c1.5,0.8,3.8,1.6,5.2,1.8c1.4,0.2,3.2,0.9,4.1,1.4
		c0.9,0.6,2.8,1.4,4.3,1.7s3.6,1.1,4.5,1.7c1,0.6,3.1,1.4,4.6,1.8c1.6,0.4,3.6,1.2,4.4,1.8c0.8,0.6,1.9,1.1,2.3,1.1
		c0.4,0,2.6,0.9,4.8,2c2.2,1.1,4.4,2,4.9,2s1.5,0.5,2.3,1c0.8,0.6,2.6,1.6,4,2.3c3.9,1.9,7.6,4.1,8.6,5c0.5,0.4,1.5,1,2.2,1.2
		c0.7,0.2,1.3,0.6,1.3,0.9s0.7,0.9,1.6,1.3c4.6,2.4,14.4,11.9,17.9,17.4c0.8,1.3,1.7,2.4,1.9,2.6c0.3,0.2,0.9,1.3,1.4,2.6
		s1.4,2.9,2,3.7c0.6,0.8,1.2,2.4,1.4,3.7c0.2,1.2,0.9,3.2,1.5,4.4c3,5.8,2.8,30.1-0.3,33.6c-0.4,0.5-1,1.9-1.2,3.1
		c-0.2,1.2-1,2.9-1.8,3.8s-1.4,1.9-1.4,2.2c0,0.3-0.9,1.7-2,3c-1.1,1.3-2,2.6-2,2.8c0,0.9-7.2,7.5-11.1,10.2
		c-2.3,1.6-4.4,3.2-4.7,3.6c-0.3,0.4-0.8,0.7-1.2,0.7c-0.4,0-1.9,0.8-3.4,1.7c-1.5,0.9-3.4,1.9-4.3,2.1c-0.8,0.2-2.4,1-3.5,1.7
		c-1.1,0.7-2.5,1.4-3.2,1.4s-2.4,0.6-3.8,1.4s-3.9,1.6-5.5,1.8c-1.6,0.2-4,0.9-5.5,1.5c-1.6,0.7-5.7,1.5-10.4,2
		c-21,2.4-19.9,2.3-28.6,1.5c-17.5-1.8-20.4-2.2-23.2-3.3c-1-0.4-3.7-1.1-6-1.6c-2.3-0.5-4.7-1.2-5.4-1.7c-0.7-0.4-2.5-1.1-4.1-1.5
		s-3.7-1.2-4.6-1.8c-1-0.6-2.7-1.2-3.9-1.5c-1.2-0.2-2.8-0.9-3.5-1.4c-0.7-0.6-2.5-1.5-4.1-2c-1.5-0.6-2.9-1.3-3.1-1.5
		c-0.2-0.3-1.4-1-2.7-1.7s-3.6-1.9-5-2.8s-3.5-2.1-4.6-2.7c-1.1-0.6-2.4-1.6-3-2.1c-0.6-0.5-1.9-1.4-2.9-2c-1.1-0.5-2.4-1.4-2.9-1.9
		c-0.6-0.5-2.1-1.8-3.5-2.8c-1.4-1.1-4.2-3.3-6.4-5.1c-7.9-6.1-17.4-1.1-13.7,7.9c1.9,4.5,20.4,18.5,32.9,24.9
		c1.5,0.8,3.2,1.8,3.8,2.3c0.5,0.5,2,1.2,3.3,1.6c1.3,0.4,3,1.2,3.8,1.8c0.8,0.6,1.9,1.1,2.3,1.1c0.4,0,1.8,0.6,3.1,1.3
		c4.8,2.6,21.9,8.2,26.9,8.8c1.7,0.2,4.7,0.9,6.6,1.5c9.8,3.1,46.4,3.1,56.9,0c2.1-0.6,5.1-1.3,6.6-1.5c3.2-0.4,13.7-3.8,17.4-5.5
		c1.3-0.6,2.8-1.1,3.3-1.1s2.2-0.8,3.7-1.7c1.5-1,3-1.7,3.4-1.7c0.4,0,1-0.4,1.4-0.9c0.4-0.5,1.9-1.4,3.3-2c2.4-1.1,3.7-1.9,8-5.5
		c1-0.8,3.2-2.6,5.1-4.1c1.8-1.5,3.3-2.9,3.3-3.1s1.5-2,3.3-4c4.3-4.6,6.5-7.4,6.5-8.1c0-0.3,0.8-1.6,1.7-2.9c0.9-1.3,2-3.4,2.3-4.7
		c0.3-1.3,0.9-2.5,1.1-2.7c0.3-0.2,1.5-3.2,2.6-6.7l2.1-6.4l-0.2-13.1c-0.2-14.9-2.3-24.3-7.2-32.5c-0.5-0.8-1.4-2.5-2-3.8
		c-2.4-4.9-9.7-13.8-14.7-18.1c-0.7-0.6-2.2-1.9-3.5-3c-3.9-3.4-5-4.2-8.3-6.4c-1.7-1.1-3.9-2.6-4.9-3.2c-2.4-1.6-6.6-4-9.9-5.7
		c-1.6-0.8-3.3-1.7-3.8-2c-1.9-1.2-8.3-4.1-8.9-4.1c-0.4,0-1.8-0.6-3.2-1.4c-1.4-0.8-4-1.8-5.6-2.4c-1.7-0.5-3.2-1.2-3.3-1.5
		c-0.2-0.3-1.8-0.9-3.6-1.4c-1.8-0.5-3.8-1.3-4.5-1.7c-0.6-0.4-2.5-1.1-4.1-1.4c-1.6-0.4-4.2-1.3-5.7-2.1s-3.3-1.4-4-1.4
		c-0.7,0-2.2-0.5-3.4-1.2c-1.2-0.6-3.5-1.5-5.2-1.8c-1.7-0.4-3.9-1.1-5-1.7c-1.1-0.6-3.2-1.3-4.6-1.7c-1.4-0.4-3.4-1-4.3-1.5
		c-1-0.4-3.6-1.4-5.8-2.2c-2.2-0.8-5.9-2.1-8.1-3c-2.2-0.9-5.2-2-6.7-2.6c-1.5-0.5-3.3-1.4-4-1.9c-0.8-0.5-2.7-1.3-4.4-1.9
		c-1.6-0.5-3.3-1.3-3.7-1.8c-0.4-0.4-1.6-1.1-2.8-1.5s-2.9-1.3-3.8-2.1c-0.9-0.7-1.8-1.4-2.1-1.4c-1.9,0-13.8-9.7-17.6-14.3
		c-4.9-6-5.6-6.9-6.5-9.5c-0.5-1.3-1.1-2.7-1.4-3.1c-3.6-4.6-3.5-29.2,0.2-37.1c0.8-1.7,1.4-3.6,1.4-4.2c0-0.6,0.8-2.1,1.7-3.3
		s1.7-2.4,1.7-2.7c0-1.4,10.1-12,13.7-14.2c3.4-2.1,9.3-5.3,10-5.3c0.3,0,1.6-0.6,2.8-1.4c1.2-0.8,3.2-1.6,4.4-1.8
		c1.3-0.2,3.3-0.9,4.5-1.5c1.2-0.6,4.7-1.5,7.8-1.9c3.1-0.4,6.3-1.1,7.2-1.4c6.4-2.5,37.4-2.4,45.5,0.2c1.4,0.5,4.4,1.1,6.6,1.4
		c2.2,0.3,5.9,1.3,8.1,2c2.2,0.7,4.5,1.4,5.1,1.4c0.6,0,2.3,0.7,3.9,1.5c1.6,0.8,3.2,1.4,3.7,1.4c1,0,14.7,6.9,16.7,8.4
		c1.3,1,2.5,1.8,6.4,4.1c0.6,0.4,1.9,1.3,2.8,2c5.5,4.5,7.3,5.9,8.6,7.1c6.1,5.6,12.9,4.6,14.4-2.1c0.8-3.5-2-10.3-4.1-10.3
		c-0.2,0-1.3-0.8-2.3-1.7c-1-1-2.7-2.4-3.6-3.3c-2.5-2.2-10.2-7.7-10.7-7.7c-0.2,0-1.2-0.6-2.1-1.3c-0.9-0.7-2.5-1.7-3.7-2.1
		c-1.1-0.4-2.4-1.1-2.9-1.5c-0.5-0.4-2.1-1.2-3.6-1.7s-2.7-1.1-2.7-1.4s-1.5-1-3.3-1.7c-1.8-0.7-3.9-1.6-4.5-2
		c-0.7-0.4-2.6-1.2-4.3-1.7c-1.7-0.5-4.7-1.4-6.6-2c-7.2-2.4-11.7-3.5-17.9-4.5c-3.5-0.5-7.7-1.2-9.2-1.5
		C492.9-760.9,469.3-761,464-760.1 M718.5-760.5c-0.8,0.2-2.5,1.2-3.8,2.2l-2.3,1.9l-0.1,152.6l-0.1,152.6l1.5,2.2
		c2.7,4,9.1,4.3,12.2,0.7l1.9-2.2v-152.7v-152.7l-2.2-2.2C723.4-760.4,721.2-761.1,718.5-760.5 M757.5-760.4
		c-5.4,1.6-7.5,8.1-4,12.2c2.8,3.4,2,3.3,41.2,3.3c34.4,0,42.5,0.3,44.3,1.7c0.3,0.2,2.6,0.9,5.1,1.4s5.5,1.4,6.6,2
		c1.2,0.6,3.3,1.7,4.8,2.3c1.4,0.7,3.1,1.5,3.8,1.9c8.3,5.2,7.6,4.6,11.6,8.2c6.3,5.6,13.6,14,13.6,15.5c0,0.3,0.5,1.1,1.1,1.8
		c2.6,2.9,7.7,14.6,8.4,19.4c0.2,1.4,0.8,3.9,1.4,5.5c2.4,6.9,1.1,26.3-2.3,36.4c-1.7,5.1-3.5,9.3-4.2,10.1
		c-0.5,0.5-0.9,1.2-0.9,1.5c0,0.6-3.1,5.6-5.6,9.1c-2.3,3.3-13,13.9-15.8,15.8c-7.8,5.2-14.1,8.5-18.7,9.8c-1.6,0.4-4.5,1.4-6.4,2.1
		c-3.4,1.3-3.7,1.3-43,1.6l-39.6,0.3l-2.7,1.7c-6,3.8-5.2,12.5,1.3,13.8c2.6,0.5,73.5,0.4,77.4-0.2c5.6-0.8,15.2-3.1,17.3-4.1
		c1.1-0.6,3.2-1.3,4.6-1.7c1.4-0.4,3.5-1.3,4.6-2.1c1.1-0.8,2.5-1.4,3-1.4s1.7-0.6,2.6-1.3c0.9-0.7,2.5-1.8,3.7-2.3
		c6-3,19.5-15.2,23.4-21.2c0.7-1.1,1.9-2.7,2.5-3.5s1.2-1.8,1.2-2.1c0-0.3,0.4-0.9,0.8-1.2c0.4-0.3,1.3-1.5,2-2.9
		c0.7-1.3,1.5-2.6,1.8-2.8s0.9-1.5,1.2-2.9c0.4-1.4,1.3-3.4,2-4.4c0.8-1,1.4-2.3,1.4-2.8s0.7-2.7,1.4-4.9c0.8-2.2,1.8-6.5,2.3-9.5
		c1.5-9,2.5-18,2.3-18.7c-0.1-0.4-0.5-2.9-0.8-5.6c-1-8.9-2.3-16.1-3.5-18.9c-0.6-1.5-1.4-3.9-1.8-5.3c-0.4-1.4-1.2-3.2-1.8-4
		s-1.1-1.8-1.1-2.2c0-1.1-4.4-9.1-5.5-10c-0.5-0.4-0.8-1-0.8-1.4c0-1.6-12.3-16.2-15.4-18.3c-0.7-0.5-2.9-2.1-4.9-3.6
		s-4.2-3.1-5-3.4c-0.8-0.4-1.4-0.9-1.4-1.1c0-0.3-1.1-1-2.5-1.6c-1.4-0.6-2.7-1.3-2.9-1.7c-0.2-0.3-1.6-1-3.1-1.6
		c-1.5-0.6-3.1-1.3-3.6-1.7c-0.5-0.4-2-1-3.5-1.4c-1.4-0.4-3.3-1.1-4.2-1.5c-0.9-0.5-4.1-1.3-7.2-2c-3.1-0.6-7.6-1.5-10-2
		C829.1-761.1,760.8-761.3,757.5-760.4 M1361.3-760.4c-6.6,1.9-8.5,9.5-3.3,13.5l2.7,2.1h115.9c63.7,0,116.3-0.2,116.8-0.4
		c6.6-2.8,6-11.9-1-14.9C1590.2-761.1,1364.5-761.3,1361.3-760.4 M1474.6-721c-0.7,0.4-2,1.3-3,1.9c-3.1,1.9-3-3.4-2.9,137.2
		l0.1,131.9l2.2,2c3.4,3.2,8.3,3,11.5-0.5l2.2-2.5v-131.7c0-145.9,0.3-133.5-3.7-136.9C1478.7-721.4,1476.2-722,1474.6-721"/>
</g>
<text id="SPOT_TEXT" transform="matrix(1 0 0 1 417.6377 -425.4647)" class="st0" style="font-family:'VarelaRound-Regular'; font-size:425px; letter-spacing:7;">SPOT</text>
<g id="Doge_2_">
	<path id="Doge_3_" class="st2" d="M86.6,7c-0.2,0-0.2,0-0.3,0.1c-4.9,4.7-4,22.9-3.4,36.1c0.8,16.8,1,25.7-3.9,27.9
		c-7.5,3.5-14.7,7.6-21.3,12.4c-2.9,2-6.2,3.8-9.5,5.6c-4.8,2.5-9.7,5.1-12.8,8.5c-2.8,2.9-4.2,6.9-5.8,11c-1.2,3.2-2.4,6.5-4.3,9.5
		C13.3,137.5,7,160.2,7,183.8c0,69.4,58.3,125.8,130,125.8s130-56.4,130-125.8c0-28.8-10.3-60.6-26.2-81.1c-4-5.1-5.3-16.3-5.4-17.6
		l-0.1-0.6l0.2-0.6c8.6-25.2,6.2-44.2,5-53.4c-0.1-0.8-0.2-1.5-0.3-2.2c-0.6-4.9-1.6-7.7-4.5-11.8c-4.5,0.1-18.5,15.2-27.7,25.2
		c-7.5,8.2-14.6,15.9-19.6,19.6c-1.4,1.1-5.5,3.5-8.3,3.6c-0.7,0-1.4,0.1-2.1,0.1l0,0c-7,0-13.9-1.8-20.6-3.5
		c-6.7-1.7-13.5-3.5-20.5-3.5c-2,0-3.7,0.1-5.1,0.2c-1.1,0.1-2,0.1-2.8,0.1c-0.9,0-1.5-0.1-2.1-0.3c-4.2-1.2-9.5-7.6-10.4-11.4
		c-0.5-2.4-5.8-12.3-12.9-22.3C94.1,10.7,88.5,7,86.6,7z"/>
	<path class="st3" d="M63.4,195c1.7-0.6,7.8-0.6-0.7-9.5c11.5,12.8,35.4-15.4,3.9-24.3c-8.5-2.4-32.1-1.5-28.7,13.7
		c0.7,1.6,7.9,8.3,8.2,7.6c-9.4-1.4-3.1,12.4,6.5,13.6C54.4,196.4,61.6,195.6,63.4,195z M63.9,212.7c-18.5-9.1-33.9,3.8-16.4,10.3
		c12.4,4.6,13.9,2.4,25.2,4.2c7.5,1.2,50.9,3.5,51.6-10c-1.8,0.1-0.2,3.6,0,0c-13.4,1.2-26.2,5.3-33,5.2c-4.4,0-9.8-1.3-15.2-3.1
		C76.1,219.3,67,214.2,63.9,212.7z M140.1,125.4c11.8-0.7,21.6,14.3,21.6,14.3s-9.9,15.8-20.6,15.4c-10.7-0.3-10.3-4.1-17.8-5.9
		C115.8,147.5,128.3,126.1,140.1,125.4z M136.8,132.9c1.6-2.1,6.2,3,6.8-2.6c0-0.5,0.1-0.5-7.2-0.4s-12.5,15.3-7.9,18
		c3.5,2,3.9,2,3.8,0.7C131.3,144.8,131.2,135.9,136.8,132.9z M64.5,112.4c9,0,11.9,5.8,12.1,9.1c0.3,5.6-5.6,16-11.4,16
		c-2.7,0-10-3.8-10.7-9.7C53.6,121.1,59.8,112.4,64.5,112.4z M65.5,115.8c2.3-1.9-8.6,2.2-8.1,9.6c0.6,7.4,8.1,10.7,6.5,8.5
		C63.9,133.9,55.4,124.1,65.5,115.8z M72.8,118.3c-0.9,0-1.6,0.8-1.6,1.7c0,1,0.7,1.7,1.6,1.7s1.6-0.8,1.6-1.7
		C74.4,119.1,73.7,118.3,72.8,118.3z"/>
</g>
<path id="Shadow_1_" class="st4" d="M45.3,263c0,0,26.1,36.4,88.6,39.6c72.1,3.8,127.7-52.7,127.7-122.1c0-28.8-12.4-55.9-28.3-76.4
	C246.8,232.4,181.8,283.3,45.3,263z"/>
</svg>
