<?xml version="1.0" encoding="utf-8"?>
<!-- Generator: Adobe Illustrator 24.0.1, SVG Export Plug-In . SVG Version: 6.00 Build 0)  -->
<svg version="1.1" id="Layer_1" xmlns="http://www.w3.org/2000/svg" xmlns:xlink="http://www.w3.org/1999/xlink" x="0px" y="0px"
	 viewBox="0 0 274.1 316.5" style="enable-background:new 0 0 274.1 316.5;" xml:space="preserve">
<style type="text/css">
	.st0{fill:#F5D8A1;stroke:#BC6F27;stroke-width:14;stroke-miterlimit:10;}
	.st1{fill:#BC6F27;}
</style>
<path class="st0" d="M86.7,7c-0.2,0-0.2,0-0.3,0.1c-4.9,4.7-4,22.9-3.4,36.1c0.8,16.8,1,25.7-3.9,27.9c-7.5,3.5-14.7,7.6-21.3,12.4
	c-2.9,2-6.2,3.8-9.5,5.6c-4.8,2.5-9.7,5.1-12.8,8.5c-2.8,2.9-4.2,6.9-5.8,11c-1.2,3.2-2.4,6.5-4.3,9.5C13.4,137.4,7,160.1,7,183.7
	c0,69.4,58.3,125.8,130,125.8s130-56.4,130-125.8c0-28.8-10.3-60.6-26.2-81.1c-4-5.1-5.3-16.3-5.4-17.6l-0.1-0.6l0.2-0.6
	c8.6-25.2,6.2-44.2,5-53.4c-0.1-0.8-0.2-1.5-0.3-2.2c-0.6-4.9-1.6-7.7-4.5-11.8c-4.5,0.1-18.5,15.2-27.7,25.2
	c-7.5,8.2-14.6,15.9-19.6,19.6c-1.4,1.1-5.5,3.5-8.3,3.6c-0.7,0-1.4,0.1-2.1,0.1l0,0c-7,0-13.9-1.8-20.6-3.5
	c-6.7-1.7-13.5-3.5-20.5-3.5c-2,0-3.7,0.1-5.1,0.2c-1.1,0.1-2,0.1-2.8,0.1c-0.9,0-1.5-0.1-2.1-0.3c-4.2-1.2-9.5-7.6-10.4-11.4
	c-0.5-2.4-5.8-12.3-12.9-22.3C94.1,10.7,88.5,7,86.7,7z"/>
<path class="st1" d="M63.4,194.9c1.7-0.6,7.8-0.6-0.7-9.5c11.5,12.8,35.4-15.4,3.9-24.3c-8.5-2.4-32.1-1.5-28.7,13.7
	c0.7,1.6,7.9,8.3,8.2,7.6c-9.4-1.4-3.1,12.4,6.5,13.6C54.4,196.3,61.7,195.5,63.4,194.9z M64,212.7c-16.9-11.8-33.9,3.8-16.4,10.3
	c12.4,4.6,13.9,2.4,25.2,4.2c7.5,1.2,50.9,3.5,51.6-10c-1.8,0.1-0.2,3.6,0,0c-13.4,1.2-27.2,4-33,5.2c-4.3,0.8-8.8-3.7-14.2-5.5
	L64,212.7z M140.1,125.4c11.8-0.7,21.6,14.3,21.6,14.3s-9.9,15.8-20.6,15.4c-10.7-0.3-10.3-4.1-17.8-5.9
	C115.9,147.4,128.4,126,140.1,125.4z M136.8,132.9c1.6-2.1,6,6.3,6.6,0.7c0.2-1.9-0.4-2.8-7.7-2.7c-7.3,0.1-10.5,15.8-5.9,18.5
	c3.5,2,6.1,5.5,5,1C133.8,146.6,134.5,136,136.8,132.9z M64.6,112.3c9,0,11.9,5.8,12.1,9.1c0.2,3.2-5.6,16-11.4,16
	c-2.7,0-10-3.8-10.7-9.7C53.7,121.1,59.8,112.3,64.6,112.3z M63.3,116.2c1.7-2.4-6.4,1.7-5.9,9.1c0.6,7.4,8.1,10.7,6.5,8.5
	c-6.1-8.3-1.6-19-3.2-16c1.6,1.3,5.1-1.4,1.2-2.1C61.7,115.7,63.2,116.5,63.3,116.2z M72.8,118.3c-0.9,0-1.6,0.8-1.6,1.7
	c0,1,0.7,1.7,1.6,1.7s1.6-0.8,1.6-1.7C74.4,119.1,73.7,118.3,72.8,118.3z"/>
</svg>
