<?xml version="1.0" encoding="utf-8"?>
<!-- Generator: Adobe Illustrator 24.0.1, SVG Export Plug-In . SVG Version: 6.00 Build 0)  -->
<svg version="1.1" id="svg" xmlns="http://www.w3.org/2000/svg" xmlns:xlink="http://www.w3.org/1999/xlink" x="0px" y="0px"
	 viewBox="0 0 1225.1 318.5" style="enable-background:new 0 0 1225.1 318.5;" xml:space="preserve">
<style type="text/css">
	.st0{fill-rule:evenodd;clip-rule:evenodd;fill:#EDBB18;}
	.st1{fill:#F5D8A1;stroke:#BC6F27;stroke-width:14;stroke-miterlimit:10;}
	.st2{fill:#BC6F27;}
</style>
<g>
	<g id="svgg">
		<path id="path0" class="st0" d="M91.1,0.9C88.5,1.3,83.5,2,79.8,2.6C76.2,3.1,71.6,4,69.7,4.6c-1.9,0.6-4.8,1.5-6.4,2
			c-5.3,1.6-10.4,3.6-11.9,4.6c-0.8,0.5-2.4,1.3-3.5,1.6c-1.1,0.4-2.4,1.1-3,1.5c-0.5,0.5-1.8,1.3-2.7,1.8
			C36.2,19.5,27,27.9,23,33.8c-4,5.9-5.6,8.6-5.6,9.4c0,0.5-0.5,1.7-1.1,2.6c-0.6,1-1.5,3.5-2.1,5.5c-0.5,2.1-1.3,4.5-1.8,5.4
			c-2.2,4.3-2.2,32.6,0,36c0.5,0.7,1.3,2.9,1.8,4.9c0.5,2,1.4,4.4,2.1,5.2c0.6,0.9,1.1,1.8,1.1,2.1c0,0.3,0.7,1.5,1.6,2.6
			c0.9,1.1,2.2,3.1,3,4.4c2.4,4,17.6,17.9,19.5,17.9c0.3,0,0.9,0.4,1.3,0.8c1.3,1.6,19.6,11.3,22.8,12.1c0.9,0.2,2.3,0.9,3,1.5
			c0.8,0.6,2.2,1.2,3.2,1.4c1,0.2,3.2,1,4.7,1.7c1.6,0.8,4.1,1.8,5.5,2.2c4.8,1.5,11.3,3.9,13,4.7c1,0.5,2.9,1.1,4.4,1.4
			c1.4,0.3,3.8,1.1,5.2,1.8c1.4,0.6,3.1,1.2,3.7,1.2c0.6,0,2.4,0.7,3.8,1.4c1.5,0.8,3.8,1.6,5.2,1.8c1.4,0.2,3.2,0.9,4.1,1.4
			c0.9,0.6,2.8,1.4,4.3,1.7c1.5,0.3,3.6,1.1,4.5,1.7c1,0.6,3.1,1.4,4.6,1.8c1.6,0.4,3.6,1.2,4.4,1.8c0.8,0.6,1.9,1.1,2.3,1.1
			c0.4,0,2.6,0.9,4.8,2c2.2,1.1,4.4,2,4.9,2c0.5,0,1.5,0.5,2.3,1c0.8,0.6,2.6,1.6,4,2.3c3.9,1.9,7.6,4.1,8.6,5
			c0.5,0.4,1.5,1,2.2,1.2c0.7,0.2,1.3,0.6,1.3,0.9c0,0.3,0.7,0.9,1.6,1.3c4.6,2.4,14.4,11.9,17.9,17.4c0.8,1.3,1.7,2.4,1.9,2.6
			c0.3,0.2,0.9,1.3,1.4,2.6c0.5,1.3,1.4,2.9,2,3.7c0.6,0.8,1.2,2.4,1.4,3.7c0.2,1.2,0.9,3.2,1.5,4.4c3,5.8,2.8,30.1-0.3,33.6
			c-0.4,0.5-1,1.9-1.2,3.1c-0.2,1.2-1,2.9-1.8,3.8c-0.8,0.9-1.4,1.9-1.4,2.2c0,0.3-0.9,1.7-2,3c-1.1,1.3-2,2.6-2,2.8
			c0,0.9-7.2,7.5-11.1,10.2c-2.3,1.6-4.4,3.2-4.7,3.6c-0.3,0.4-0.8,0.7-1.2,0.7c-0.4,0-1.9,0.8-3.4,1.7c-1.5,0.9-3.4,1.9-4.3,2.1
			c-0.8,0.2-2.4,1-3.5,1.7c-1.1,0.7-2.5,1.4-3.2,1.4s-2.4,0.6-3.8,1.4c-1.4,0.8-3.9,1.6-5.5,1.8c-1.6,0.2-4,0.9-5.5,1.5
			c-1.6,0.7-5.7,1.5-10.4,2c-21,2.4-19.9,2.3-28.6,1.5c-17.5-1.8-20.4-2.2-23.2-3.3c-1-0.4-3.7-1.1-6-1.6c-2.3-0.5-4.7-1.2-5.4-1.7
			c-0.7-0.4-2.5-1.1-4.1-1.5c-1.6-0.4-3.7-1.2-4.6-1.8c-1-0.6-2.7-1.2-3.9-1.5c-1.2-0.2-2.8-0.9-3.5-1.4c-0.7-0.6-2.5-1.5-4.1-2
			c-1.5-0.6-2.9-1.3-3.1-1.5c-0.2-0.3-1.4-1-2.7-1.7c-1.3-0.7-3.6-1.9-5-2.8c-1.4-0.9-3.5-2.1-4.6-2.7c-1.1-0.6-2.4-1.6-3-2.1
			c-0.6-0.5-1.9-1.4-2.9-2c-1.1-0.5-2.4-1.4-2.9-1.9c-0.6-0.5-2.1-1.8-3.5-2.8c-1.4-1.1-4.2-3.3-6.4-5.1C6.6,256-2.9,261,0.8,270
			c1.9,4.5,20.4,18.5,32.9,24.9c1.5,0.8,3.2,1.8,3.8,2.3c0.5,0.5,2,1.2,3.3,1.6s3,1.2,3.8,1.8c0.8,0.6,1.9,1.1,2.3,1.1
			c0.4,0,1.8,0.6,3.1,1.3c4.8,2.6,21.9,8.2,26.9,8.8c1.7,0.2,4.7,0.9,6.6,1.5c9.8,3.1,46.4,3.1,56.9,0c2.1-0.6,5.1-1.3,6.6-1.5
			c3.2-0.4,13.7-3.8,17.4-5.5c1.3-0.6,2.8-1.1,3.3-1.1c0.5,0,2.2-0.8,3.7-1.7c1.5-1,3-1.7,3.4-1.7c0.4,0,1-0.4,1.4-0.9
			c0.4-0.5,1.9-1.4,3.3-2c2.4-1.1,3.7-1.9,8-5.5c1-0.8,3.2-2.6,5.1-4.1c1.8-1.5,3.3-2.9,3.3-3.1c0-0.2,1.5-2,3.3-4
			c4.3-4.6,6.5-7.4,6.5-8.1c0-0.3,0.8-1.6,1.7-2.9c0.9-1.3,2-3.4,2.3-4.7c0.3-1.3,0.9-2.5,1.1-2.7c0.3-0.2,1.5-3.2,2.6-6.7l2.1-6.4
			l-0.2-13.1c-0.2-14.9-2.3-24.3-7.2-32.5c-0.5-0.8-1.4-2.5-2-3.8c-2.4-4.9-9.7-13.8-14.7-18.1c-0.7-0.6-2.2-1.9-3.5-3
			c-3.9-3.4-5-4.2-8.3-6.4c-1.7-1.1-3.9-2.6-4.9-3.2c-2.4-1.6-6.6-4-9.9-5.7c-1.6-0.8-3.3-1.7-3.8-2c-1.9-1.2-8.3-4.1-8.9-4.1
			c-0.4,0-1.8-0.6-3.2-1.4c-1.4-0.8-4-1.8-5.6-2.4c-1.7-0.5-3.2-1.2-3.3-1.5c-0.2-0.3-1.8-0.9-3.6-1.4c-1.8-0.5-3.8-1.3-4.5-1.7
			c-0.6-0.4-2.5-1.1-4.1-1.4c-1.6-0.4-4.2-1.3-5.7-2.1c-1.5-0.8-3.3-1.4-4-1.4c-0.7,0-2.2-0.5-3.4-1.2c-1.2-0.6-3.5-1.5-5.2-1.8
			c-1.7-0.4-3.9-1.1-5-1.7c-1.1-0.6-3.2-1.3-4.6-1.7c-1.4-0.4-3.4-1-4.3-1.5c-1-0.4-3.6-1.4-5.8-2.2c-2.2-0.8-5.9-2.1-8.1-3
			c-2.2-0.9-5.2-2-6.7-2.6c-1.5-0.5-3.3-1.4-4-1.9c-0.8-0.5-2.7-1.3-4.4-1.9c-1.6-0.5-3.3-1.3-3.7-1.8c-0.4-0.4-1.6-1.1-2.8-1.5
			c-1.2-0.4-2.9-1.3-3.8-2.1c-0.9-0.7-1.8-1.4-2.1-1.4c-1.9,0-13.8-9.7-17.6-14.3c-4.9-6-5.6-6.9-6.5-9.5c-0.5-1.3-1.1-2.7-1.4-3.1
			c-3.6-4.6-3.5-29.2,0.2-37.1c0.8-1.7,1.4-3.6,1.4-4.2c0-0.6,0.8-2.1,1.7-3.3s1.7-2.4,1.7-2.7c0-1.4,10.1-12,13.7-14.2
			c3.4-2.1,9.3-5.3,10-5.3c0.3,0,1.6-0.6,2.8-1.4c1.2-0.8,3.2-1.6,4.4-1.8c1.3-0.2,3.3-0.9,4.5-1.5c1.2-0.6,4.7-1.5,7.8-1.9
			c3.1-0.4,6.3-1.1,7.2-1.4c6.4-2.5,37.4-2.4,45.5,0.2c1.4,0.5,4.4,1.1,6.6,1.4c2.2,0.3,5.9,1.3,8.1,2s4.5,1.4,5.1,1.4
			c0.6,0,2.3,0.7,3.9,1.5c1.6,0.8,3.2,1.4,3.7,1.4c1,0,14.7,6.9,16.7,8.4c1.3,1,2.5,1.8,6.4,4.1c0.6,0.4,1.9,1.3,2.8,2
			c5.5,4.5,7.3,5.9,8.6,7.1c6.1,5.6,12.9,4.6,14.4-2.1c0.8-3.5-2-10.3-4.1-10.3c-0.2,0-1.3-0.8-2.3-1.7c-1-1-2.7-2.4-3.6-3.3
			c-2.5-2.2-10.2-7.7-10.7-7.7c-0.2,0-1.2-0.6-2.1-1.3c-0.9-0.7-2.5-1.7-3.7-2.1c-1.1-0.4-2.4-1.1-2.9-1.5c-0.5-0.4-2.1-1.2-3.6-1.7
			c-1.5-0.5-2.7-1.1-2.7-1.4c0-0.3-1.5-1-3.3-1.7s-3.9-1.6-4.5-2c-0.7-0.4-2.6-1.2-4.3-1.7c-1.7-0.5-4.7-1.4-6.6-2
			c-7.2-2.4-11.7-3.5-17.9-4.5c-3.5-0.5-7.7-1.2-9.2-1.5C120,0.1,96.4,0,91.1,0.9 M345.6,0.5c-0.8,0.2-2.5,1.2-3.8,2.2l-2.3,1.9
			l-0.1,152.6l-0.1,152.6l1.5,2.2c2.7,4,9.1,4.3,12.2,0.7l1.9-2.2l0-152.7l0-152.7l-2.2-2.2C350.5,0.6,348.3-0.1,345.6,0.5
			 M384.6,0.6c-5.4,1.6-7.5,8.1-4,12.2c2.8,3.4,2,3.3,41.2,3.3c34.4,0,42.5,0.3,44.3,1.7c0.3,0.2,2.6,0.9,5.1,1.4
			c2.5,0.5,5.5,1.4,6.6,2c1.2,0.6,3.3,1.7,4.8,2.3c1.4,0.7,3.1,1.5,3.8,1.9c8.3,5.2,7.6,4.6,11.6,8.2c6.3,5.6,13.6,14,13.6,15.5
			c0,0.3,0.5,1.1,1.1,1.8c2.6,2.9,7.7,14.6,8.4,19.4c0.2,1.4,0.8,3.9,1.4,5.5c2.4,6.9,1.1,26.3-2.3,36.4c-1.7,5.1-3.5,9.3-4.2,10.1
			c-0.5,0.5-0.9,1.2-0.9,1.5c0,0.6-3.1,5.6-5.6,9.1c-2.3,3.3-13,13.9-15.8,15.8c-7.8,5.2-14.1,8.5-18.7,9.8
			c-1.6,0.4-4.5,1.4-6.4,2.1c-3.4,1.3-3.7,1.3-43,1.6l-39.6,0.3l-2.7,1.7c-6,3.8-5.2,12.5,1.3,13.8c2.6,0.5,73.5,0.4,77.4-0.2
			c5.6-0.8,15.2-3.1,17.3-4.1c1.1-0.6,3.2-1.3,4.6-1.7c1.4-0.4,3.5-1.3,4.6-2.1c1.1-0.8,2.5-1.4,3-1.4c0.5,0,1.7-0.6,2.6-1.3
			c0.9-0.7,2.5-1.8,3.7-2.3c6-3,19.5-15.2,23.4-21.2c0.7-1.1,1.9-2.7,2.5-3.5c0.6-0.8,1.2-1.8,1.2-2.1s0.4-0.9,0.8-1.2
			c0.4-0.3,1.3-1.5,2-2.9c0.7-1.3,1.5-2.6,1.8-2.8c0.3-0.2,0.9-1.5,1.2-2.9c0.4-1.4,1.3-3.4,2-4.4c0.8-1,1.4-2.3,1.4-2.8
			c0-0.5,0.7-2.7,1.4-4.9c0.8-2.2,1.8-6.5,2.3-9.5c1.5-9,2.5-18,2.3-18.7c-0.1-0.4-0.5-2.9-0.8-5.6c-1-8.9-2.3-16.1-3.5-18.9
			c-0.6-1.5-1.4-3.9-1.8-5.3c-0.4-1.4-1.2-3.2-1.8-4c-0.6-0.8-1.1-1.8-1.1-2.2c0-1.1-4.4-9.1-5.5-10c-0.5-0.4-0.8-1-0.8-1.4
			c0-1.6-12.3-16.2-15.4-18.3c-0.7-0.5-2.9-2.1-4.9-3.6c-2-1.5-4.2-3.1-5-3.4c-0.8-0.4-1.4-0.9-1.4-1.1c0-0.3-1.1-1-2.5-1.6
			c-1.4-0.6-2.7-1.3-2.9-1.7c-0.2-0.3-1.6-1-3.1-1.6c-1.5-0.6-3.1-1.3-3.6-1.7c-0.5-0.4-2-1-3.5-1.4c-1.4-0.4-3.3-1.1-4.2-1.5
			c-0.9-0.5-4.1-1.3-7.2-2c-3.1-0.6-7.6-1.5-10-2C456.2-0.1,387.9-0.3,384.6,0.6 M988.4,0.6c-6.6,1.9-8.5,9.5-3.3,13.5l2.7,2.1
			l115.9,0c63.7,0,116.3-0.2,116.8-0.4c6.6-2.8,6-11.9-1-14.9C1217.3-0.1,991.6-0.3,988.4,0.6 M1101.7,40c-0.7,0.4-2,1.3-3,1.9
			c-3.1,1.9-3-3.4-2.9,137.2l0.1,131.9l2.2,2c3.4,3.2,8.3,3,11.5-0.5l2.2-2.5V178.3c0-145.9,0.3-133.5-3.7-136.9
			C1105.8,39.6,1103.3,39,1101.7,40"/>
	</g>
	<path class="st1" d="M720,9c-0.2,0-0.2,0-0.3,0.1c-4.9,4.7-4,22.9-3.4,36.1c0.8,16.8,1,25.7-3.9,27.9c-7.5,3.5-14.7,7.6-21.3,12.4
		c-2.9,2-6.2,3.8-9.5,5.6c-4.8,2.5-9.7,5.1-12.8,8.5c-2.8,2.9-4.2,6.9-5.8,11c-1.2,3.2-2.4,6.5-4.3,9.5
		c-12,19.4-18.3,42.1-18.3,65.7c0,69.4,58.3,125.8,130,125.8c71.7,0,130-56.4,130-125.8c0-28.8-10.3-60.6-26.2-81.1
		c-4-5.1-5.3-16.3-5.4-17.6l-0.1-0.6l0.2-0.6c8.6-25.2,6.2-44.2,5-53.4c-0.1-0.8-0.2-1.5-0.3-2.2c-0.6-4.9-1.6-7.7-4.5-11.8
		c-4.5,0.1-18.5,15.2-27.7,25.2c-7.5,8.2-14.6,15.9-19.6,19.6c-1.4,1.1-5.5,3.5-8.3,3.6c-0.7,0-1.4,0.1-2.1,0.1l0,0
		c-7,0-13.9-1.8-20.6-3.5c-6.7-1.7-13.5-3.5-20.5-3.5c-2,0-3.7,0.1-5.1,0.2c-1.1,0.1-2,0.1-2.8,0.1c-0.9,0-1.5-0.1-2.1-0.3
		c-4.2-1.2-9.5-7.6-10.4-11.4c-0.5-2.4-5.8-12.3-12.9-22.3C727.5,12.7,721.9,9,720,9z"/>
	<path class="st2" d="M696.8,197c1.7-0.6,7.8-0.6-0.7-9.5c11.5,12.8,35.4-15.4,3.9-24.3c-8.5-2.4-32.1-1.5-28.7,13.7
		c0.7,1.6,7.9,8.3,8.2,7.6c-9.4-1.4-3.1,12.4,6.5,13.6C687.8,198.4,695,197.6,696.8,197z M697.3,214.7
		c-16.9-11.8-33.9,3.8-16.4,10.3c12.4,4.6,13.9,2.4,25.2,4.2c7.5,1.2,50.9,3.5,51.6-10c-1.8,0.1-0.2,3.6,0,0
		c-13.4,1.2-27.2,4-33,5.2c-4.3,0.8-8.8-3.7-14.2-5.5L697.3,214.7z M773.5,127.4c11.8-0.7,21.6,14.3,21.6,14.3s-9.9,15.8-20.6,15.4
		c-10.7-0.3-10.3-4.1-17.8-5.9C749.2,149.5,761.7,128.1,773.5,127.4z M770.2,134.9c1.6-2.1,6,6.3,6.6,0.7c0.2-1.9-0.4-2.8-7.7-2.7
		c-7.3,0.1-10.5,15.8-5.9,18.5c3.5,2,6.1,5.5,5,1C767.2,148.6,767.8,138,770.2,134.9z M697.9,114.4c9,0,11.9,5.8,12.1,9.1
		c0.2,3.2-5.6,16-11.4,16c-2.7,0-10-3.8-10.7-9.7C687,123.1,693.2,114.4,697.9,114.4z M696.7,118.3c1.7-2.4-6.4,1.7-5.9,9.1
		c0.6,7.4,8.1,10.7,6.5,8.5c-6.1-8.3-1.6-19-3.2-16c1.6,1.3,5.1-1.4,1.2-2.1C695,117.8,696.6,118.5,696.7,118.3z M706.2,120.3
		c-0.9,0-1.6,0.8-1.6,1.7c0,1,0.7,1.7,1.6,1.7s1.6-0.8,1.6-1.7C707.8,121.1,707.1,120.3,706.2,120.3z"/>
</g>
</svg>
