<?xml version="1.0" encoding="utf-8"?>
<!-- Generator: Adobe Illustrator 24.0.1, SVG Export Plug-In . SVG Version: 6.00 Build 0)  -->
<svg version="1.1" id="svg" xmlns="http://www.w3.org/2000/svg" xmlns:xlink="http://www.w3.org/1999/xlink" x="0px" y="0px"
	 viewBox="0 0 433.1 510.6" style="enable-background:new 0 0 433.1 510.6;" xml:space="preserve">
<style type="text/css">
	.st0{display:none;}
	.st1{display:inline;fill-rule:evenodd;clip-rule:evenodd;fill:#EDBB18;}
	.st2{fill:#BC6F27;stroke:#BC6F27;stroke-width:7;stroke-miterlimit:10;}
	.st3{fill:#F5D8A1;stroke:#BC6F27;stroke-width:14;stroke-miterlimit:10;}
	.st4{fill:#BC6F27;}
	.st5{fill:#BC6F27;stroke:#BC6F27;stroke-width:2;stroke-miterlimit:10;}
	.st6{fill:#EDBB18;}
</style>
<g id="SP__T" class="st0">
	<path id="path0" class="st1" d="M539.2-727.2c-2.6,0.4-7.6,1.1-11.3,1.7c-3.6,0.5-8.2,1.4-10.1,2c-1.9,0.6-4.8,1.5-6.4,2
		c-5.3,1.6-10.4,3.6-11.9,4.6c-0.8,0.5-2.4,1.3-3.5,1.6c-1.1,0.4-2.4,1.1-3,1.5c-0.5,0.5-1.8,1.3-2.7,1.8
		c-6,3.4-15.2,11.8-19.2,17.7c-4,5.9-5.6,8.6-5.6,9.4c0,0.5-0.5,1.7-1.1,2.6c-0.6,1-1.5,3.5-2.1,5.5c-0.5,2.1-1.3,4.5-1.8,5.4
		c-2.2,4.3-2.2,32.6,0,36c0.5,0.7,1.3,2.9,1.8,4.9s1.4,4.4,2.1,5.2c0.6,0.9,1.1,1.8,1.1,2.1c0,0.3,0.7,1.5,1.6,2.6
		c0.9,1.1,2.2,3.1,3,4.4c2.4,4,17.6,17.9,19.5,17.9c0.3,0,0.9,0.4,1.3,0.8c1.3,1.6,19.6,11.3,22.8,12.1c0.9,0.2,2.3,0.9,3,1.5
		c0.8,0.6,2.2,1.2,3.2,1.4s3.2,1,4.7,1.7c1.6,0.8,4.1,1.8,5.5,2.2c4.8,1.5,11.3,3.9,13,4.7c1,0.5,2.9,1.1,4.4,1.4
		c1.4,0.3,3.8,1.1,5.2,1.8c1.4,0.6,3.1,1.2,3.7,1.2c0.6,0,2.4,0.7,3.8,1.4c1.5,0.8,3.8,1.6,5.2,1.8c1.4,0.2,3.2,0.9,4.1,1.4
		c0.9,0.6,2.8,1.4,4.3,1.7s3.6,1.1,4.5,1.7c1,0.6,3.1,1.4,4.6,1.8c1.6,0.4,3.6,1.2,4.4,1.8c0.8,0.6,1.9,1.1,2.3,1.1
		c0.4,0,2.6,0.9,4.8,2c2.2,1.1,4.4,2,4.9,2s1.5,0.5,2.3,1c0.8,0.6,2.6,1.6,4,2.3c3.9,1.9,7.6,4.1,8.6,5c0.5,0.4,1.5,1,2.2,1.2
		c0.7,0.2,1.3,0.6,1.3,0.9s0.7,0.9,1.6,1.3c4.6,2.4,14.4,11.9,17.9,17.4c0.8,1.3,1.7,2.4,1.9,2.6c0.3,0.2,0.9,1.3,1.4,2.6
		s1.4,2.9,2,3.7c0.6,0.8,1.2,2.4,1.4,3.7c0.2,1.2,0.9,3.2,1.5,4.4c3,5.8,2.8,30.1-0.3,33.6c-0.4,0.5-1,1.9-1.2,3.1
		c-0.2,1.2-1,2.9-1.8,3.8s-1.4,1.9-1.4,2.2c0,0.3-0.9,1.7-2,3c-1.1,1.3-2,2.6-2,2.8c0,0.9-7.2,7.5-11.1,10.2
		c-2.3,1.6-4.4,3.2-4.7,3.6c-0.3,0.4-0.8,0.7-1.2,0.7c-0.4,0-1.9,0.8-3.4,1.7c-1.5,0.9-3.4,1.9-4.3,2.1c-0.8,0.2-2.4,1-3.5,1.7
		c-1.1,0.7-2.5,1.4-3.2,1.4s-2.4,0.6-3.8,1.4s-3.9,1.6-5.5,1.8c-1.6,0.2-4,0.9-5.5,1.5c-1.6,0.7-5.7,1.5-10.4,2
		c-21,2.4-19.9,2.3-28.6,1.5c-17.5-1.8-20.4-2.2-23.2-3.3c-1-0.4-3.7-1.1-6-1.6s-4.7-1.2-5.4-1.7c-0.7-0.4-2.5-1.1-4.1-1.5
		c-1.6-0.4-3.7-1.2-4.6-1.8c-1-0.6-2.7-1.2-3.9-1.5c-1.2-0.2-2.8-0.9-3.5-1.4c-0.7-0.6-2.5-1.5-4.1-2c-1.5-0.6-2.9-1.3-3.1-1.5
		c-0.2-0.3-1.4-1-2.7-1.7s-3.6-1.9-5-2.8s-3.5-2.1-4.6-2.7s-2.4-1.6-3-2.1s-1.9-1.4-2.9-2c-1.1-0.5-2.4-1.4-2.9-1.9
		c-0.6-0.5-2.1-1.8-3.5-2.8c-1.4-1.1-4.2-3.3-6.4-5.1c-7.9-6.1-17.4-1.1-13.7,7.9c1.9,4.5,20.4,18.5,32.9,24.9
		c1.5,0.8,3.2,1.8,3.8,2.3c0.5,0.5,2,1.2,3.3,1.6c1.3,0.4,3,1.2,3.8,1.8c0.8,0.6,1.9,1.1,2.3,1.1s1.8,0.6,3.1,1.3
		c4.8,2.6,21.9,8.2,26.9,8.8c1.7,0.2,4.7,0.9,6.6,1.5c9.8,3.1,46.4,3.1,56.9,0c2.1-0.6,5.1-1.3,6.6-1.5c3.2-0.4,13.7-3.8,17.4-5.5
		c1.3-0.6,2.8-1.1,3.3-1.1s2.2-0.8,3.7-1.7c1.5-1,3-1.7,3.4-1.7c0.4,0,1-0.4,1.4-0.9c0.4-0.5,1.9-1.4,3.3-2c2.4-1.1,3.7-1.9,8-5.5
		c1-0.8,3.2-2.6,5.1-4.1c1.8-1.5,3.3-2.9,3.3-3.1s1.5-2,3.3-4c4.3-4.6,6.5-7.4,6.5-8.1c0-0.3,0.8-1.6,1.7-2.9c0.9-1.3,2-3.4,2.3-4.7
		c0.3-1.3,0.9-2.5,1.1-2.7c0.3-0.2,1.5-3.2,2.6-6.7l2.1-6.4l-0.2-13.1c-0.2-14.9-2.3-24.3-7.2-32.5c-0.5-0.8-1.4-2.5-2-3.8
		c-2.4-4.9-9.7-13.8-14.7-18.1c-0.7-0.6-2.2-1.9-3.5-3c-3.9-3.4-5-4.2-8.3-6.4c-1.7-1.1-3.9-2.6-4.9-3.2c-2.4-1.6-6.6-4-9.9-5.7
		c-1.6-0.8-3.3-1.7-3.8-2c-1.9-1.2-8.3-4.1-8.9-4.1c-0.4,0-1.8-0.6-3.2-1.4c-1.4-0.8-4-1.8-5.6-2.4c-1.7-0.5-3.2-1.2-3.3-1.5
		c-0.2-0.3-1.8-0.9-3.6-1.4c-1.8-0.5-3.8-1.3-4.5-1.7c-0.6-0.4-2.5-1.1-4.1-1.4c-1.6-0.4-4.2-1.3-5.7-2.1s-3.3-1.4-4-1.4
		c-0.7,0-2.2-0.5-3.4-1.2c-1.2-0.6-3.5-1.5-5.2-1.8c-1.7-0.4-3.9-1.1-5-1.7c-1.1-0.6-3.2-1.3-4.6-1.7c-1.4-0.4-3.4-1-4.3-1.5
		c-1-0.4-3.6-1.4-5.8-2.2s-5.9-2.1-8.1-3c-2.2-0.9-5.2-2-6.7-2.6c-1.5-0.5-3.3-1.4-4-1.9c-0.8-0.5-2.7-1.3-4.4-1.9
		c-1.6-0.5-3.3-1.3-3.7-1.8c-0.4-0.4-1.6-1.1-2.8-1.5c-1.2-0.4-2.9-1.3-3.8-2.1c-0.9-0.7-1.8-1.4-2.1-1.4c-1.9,0-13.8-9.7-17.6-14.3
		c-4.9-6-5.6-6.9-6.5-9.5c-0.5-1.3-1.1-2.7-1.4-3.1c-3.6-4.6-3.5-29.2,0.2-37.1c0.8-1.7,1.4-3.6,1.4-4.2c0-0.6,0.8-2.1,1.7-3.3
		s1.7-2.4,1.7-2.7c0-1.4,10.1-12,13.7-14.2c3.4-2.1,9.3-5.3,10-5.3c0.3,0,1.6-0.6,2.8-1.4c1.2-0.8,3.2-1.6,4.4-1.8
		c1.3-0.2,3.3-0.9,4.5-1.5c1.2-0.6,4.7-1.5,7.8-1.9c3.1-0.4,6.3-1.1,7.2-1.4c6.4-2.5,37.4-2.4,45.5,0.2c1.4,0.5,4.4,1.1,6.6,1.4
		s5.9,1.3,8.1,2s4.5,1.4,5.1,1.4c0.6,0,2.3,0.7,3.9,1.5c1.6,0.8,3.2,1.4,3.7,1.4c1,0,14.7,6.9,16.7,8.4c1.3,1,2.5,1.8,6.4,4.1
		c0.6,0.4,1.9,1.3,2.8,2c5.5,4.5,7.3,5.9,8.6,7.1c6.1,5.6,12.9,4.6,14.4-2.1c0.8-3.5-2-10.3-4.1-10.3c-0.2,0-1.3-0.8-2.3-1.7
		c-1-1-2.7-2.4-3.6-3.3c-2.5-2.2-10.2-7.7-10.7-7.7c-0.2,0-1.2-0.6-2.1-1.3c-0.9-0.7-2.5-1.7-3.7-2.1c-1.1-0.4-2.4-1.1-2.9-1.5
		c-0.5-0.4-2.1-1.2-3.6-1.7s-2.7-1.1-2.7-1.4s-1.5-1-3.3-1.7c-1.8-0.7-3.9-1.6-4.5-2c-0.7-0.4-2.6-1.2-4.3-1.7
		c-1.7-0.5-4.7-1.4-6.6-2c-7.2-2.4-11.7-3.5-17.9-4.5c-3.5-0.5-7.7-1.2-9.2-1.5C568.1-728,544.5-728.1,539.2-727.2 M793.7-727.6
		c-0.8,0.2-2.5,1.2-3.8,2.2l-2.3,1.9l-0.1,152.6l-0.1,152.6l1.5,2.2c2.7,4,9.1,4.3,12.2,0.7l1.9-2.2v-152.7V-723l-2.2-2.2
		C798.6-727.5,796.4-728.2,793.7-727.6 M832.7-727.5c-5.4,1.6-7.5,8.1-4,12.2c2.8,3.4,2,3.3,41.2,3.3c34.4,0,42.5,0.3,44.3,1.7
		c0.3,0.2,2.6,0.9,5.1,1.4s5.5,1.4,6.6,2c1.2,0.6,3.3,1.7,4.8,2.3c1.4,0.7,3.1,1.5,3.8,1.9c8.3,5.2,7.6,4.6,11.6,8.2
		c6.3,5.6,13.6,14,13.6,15.5c0,0.3,0.5,1.1,1.1,1.8c2.6,2.9,7.7,14.6,8.4,19.4c0.2,1.4,0.8,3.9,1.4,5.5c2.4,6.9,1.1,26.3-2.3,36.4
		c-1.7,5.1-3.5,9.3-4.2,10.1c-0.5,0.5-0.9,1.2-0.9,1.5c0,0.6-3.1,5.6-5.6,9.1c-2.3,3.3-13,13.9-15.8,15.8
		c-7.8,5.2-14.1,8.5-18.7,9.8c-1.6,0.4-4.5,1.4-6.4,2.1c-3.4,1.3-3.7,1.3-43,1.6l-39.6,0.3l-2.7,1.7c-6,3.8-5.2,12.5,1.3,13.8
		c2.6,0.5,73.5,0.4,77.4-0.2c5.6-0.8,15.2-3.1,17.3-4.1c1.1-0.6,3.2-1.3,4.6-1.7c1.4-0.4,3.5-1.3,4.6-2.1c1.1-0.8,2.5-1.4,3-1.4
		s1.7-0.6,2.6-1.3c0.9-0.7,2.5-1.8,3.7-2.3c6-3,19.5-15.2,23.4-21.2c0.7-1.1,1.9-2.7,2.5-3.5s1.2-1.8,1.2-2.1c0-0.3,0.4-0.9,0.8-1.2
		c0.4-0.3,1.3-1.5,2-2.9c0.7-1.3,1.5-2.6,1.8-2.8s0.9-1.5,1.2-2.9c0.4-1.4,1.3-3.4,2-4.4c0.8-1,1.4-2.3,1.4-2.8s0.7-2.7,1.4-4.9
		c0.8-2.2,1.8-6.5,2.3-9.5c1.5-9,2.5-18,2.3-18.7c-0.1-0.4-0.5-2.9-0.8-5.6c-1-8.9-2.3-16.1-3.5-18.9c-0.6-1.5-1.4-3.9-1.8-5.3
		c-0.4-1.4-1.2-3.2-1.8-4s-1.1-1.8-1.1-2.2c0-1.1-4.4-9.1-5.5-10c-0.5-0.4-0.8-1-0.8-1.4c0-1.6-12.3-16.2-15.4-18.3
		c-0.7-0.5-2.9-2.1-4.9-3.6s-4.2-3.1-5-3.4c-0.8-0.4-1.4-0.9-1.4-1.1c0-0.3-1.1-1-2.5-1.6c-1.4-0.6-2.7-1.3-2.9-1.7
		c-0.2-0.3-1.6-1-3.1-1.6c-1.5-0.6-3.1-1.3-3.6-1.7c-0.5-0.4-2-1-3.5-1.4c-1.4-0.4-3.3-1.1-4.2-1.5c-0.9-0.5-4.1-1.3-7.2-2
		c-3.1-0.6-7.6-1.5-10-2C904.3-728.2,836-728.4,832.7-727.5 M1436.5-727.5c-6.6,1.9-8.5,9.5-3.3,13.5l2.7,2.1h115.9
		c63.7,0,116.3-0.2,116.8-0.4c6.6-2.8,6-11.9-1-14.9C1665.4-728.2,1439.7-728.4,1436.5-727.5 M1549.8-688.1c-0.7,0.4-2,1.3-3,1.9
		c-3.1,1.9-3-3.4-2.9,137.2l0.1,131.9l2.2,2c3.4,3.2,8.3,3,11.5-0.5l2.2-2.5v-131.7c0-145.9,0.3-133.5-3.7-136.9
		C1553.9-688.5,1551.4-689.1,1549.8-688.1"/>
</g>
<text id="SPOT_TEXT" transform="matrix(1 0 0 1 492.7652 -392.5588)" class="st0" style="font-family:'VarelaRound-Regular'; font-size:425px; letter-spacing:7;">SPOT</text>
<g>
	<g>
		<polygon class="st2" points="422.5,13 422.5,84 429.6,84 429.6,3.5 347.6,3.5 347.6,13 		"/>
		<polygon class="st2" points="422.6,286 422.6,369.5 347.6,369.5 347.6,378.5 429.6,378.5 429.6,286 		"/>
		<polygon class="st2" points="10.6,286 3.5,286 3.5,378.5 85.6,378.5 85.6,369.5 10.6,369.5 		"/>
		<polygon class="st2" points="10.6,84 10.6,13 85.6,13 85.6,3.5 3.6,3.5 3.6,84 		"/>
	</g>
	<g id="Doge_2_">
		<path id="Doge_3_" class="st3" d="M161.7,39.9c-0.2,0-0.2,0-0.3,0.1c-4.9,4.7-4,22.9-3.4,36.1c0.8,16.8,1,25.7-3.9,27.9
			c-7.5,3.5-14.7,7.6-21.3,12.4c-2.9,2-6.2,3.8-9.5,5.6c-4.8,2.5-9.7,5.1-12.8,8.5c-2.8,2.9-4.2,6.9-5.8,11
			c-1.2,3.2-2.4,6.5-4.3,9.5c-12,19.4-18.3,42.1-18.3,65.7c0,69.4,58.3,125.8,130,125.8s130-56.4,130-125.8
			c0-28.8-10.3-60.6-26.2-81.1c-4-5.1-5.3-16.3-5.4-17.6l-0.1-0.6l0.2-0.6c8.6-25.2,6.2-44.2,5-53.4c-0.1-0.8-0.2-1.5-0.3-2.2
			c-0.6-4.9-1.6-7.7-4.5-11.8c-4.5,0.1-18.5,15.2-27.7,25.2c-7.5,8.2-14.6,15.9-19.6,19.6c-1.4,1.1-5.5,3.5-8.3,3.6
			c-0.7,0-1.4,0.1-2.1,0.1l0,0c-7,0-13.9-1.8-20.6-3.5c-6.7-1.7-13.5-3.5-20.5-3.5c-2,0-3.7,0.1-5.1,0.2c-1.1,0.1-2,0.1-2.8,0.1
			c-0.9,0-1.5-0.1-2.1-0.3c-4.2-1.2-9.5-7.6-10.4-11.4c-0.5-2.4-5.8-12.3-12.9-22.3C169.2,43.6,163.6,39.9,161.7,39.9z"/>
		<path class="st4" d="M138.5,227.9c1.7-0.6,7.8-0.6-0.7-9.5c11.5,12.8,35.4-15.4,3.9-24.3c-8.5-2.4-32.1-1.5-28.7,13.7
			c0.7,1.6,7.9,8.3,8.2,7.6c-9.4-1.4-3.1,12.4,6.5,13.6C129.5,229.3,136.7,228.5,138.5,227.9z M139,245.6
			c-18.5-9.1-33.9,3.8-16.4,10.3c12.4,4.6,13.9,2.4,25.2,4.2c7.5,1.2,50.9,3.5,51.6-10c-1.8,0.1-0.2,3.6,0,0
			c-13.4,1.2-26.2,5.3-33,5.2c-4.4,0-9.8-1.3-15.2-3.1C151.2,252.2,142.1,247.1,139,245.6z M215.2,158.3
			c11.8-0.7,21.6,14.3,21.6,14.3s-9.9,15.8-20.6,15.4c-10.7-0.3-10.3-4.1-17.8-5.9C190.9,180.4,203.4,159,215.2,158.3z M211.9,165.8
			c1.6-2.1,6.2,3,6.8-2.6c0-0.5,0.1-0.5-7.2-0.4s-12.5,15.3-7.9,18c3.5,2,3.9,2,3.8,0.7C206.4,177.7,206.4,168.8,211.9,165.8z
			 M139.6,145.3c9,0,11.9,5.8,12.1,9.1c0.3,5.6-5.6,16-11.4,16c-2.7,0-10-3.8-10.7-9.7C128.7,154,134.9,145.3,139.6,145.3z
			 M140.6,148.7c2.3-1.9-8.6,2.2-8.1,9.6c0.6,7.4,8.1,10.7,6.5,8.5C139,166.8,130.5,157,140.6,148.7z M147.9,151.2
			c-0.9,0-1.6,0.8-1.6,1.7c0,1,0.7,1.7,1.6,1.7s1.6-0.8,1.6-1.7C149.5,152,148.8,151.2,147.9,151.2z"/>
	</g>
	<circle class="st5" cx="49.6" cy="48.5" r="12"/>
	<path id="Shadow_1_" class="st6" d="M120.4,295.9c0,0,26.1,36.4,88.6,39.6c72.1,3.8,127.7-52.7,127.7-122.1
		c0-28.8-12.4-55.9-28.3-76.4C321.9,265.3,256.9,316.2,120.4,295.9z"/>
	<g>
		<path class="st4" d="M47.9,504.9c-1-0.4-1.8-1.1-2.4-2c-0.6-0.9-1-1.9-1-2.9c0-1.4,0.5-2.5,1.4-3.5c0.9-1,2.1-1.5,3.5-1.5
			c0.8,0,1.6,0.2,2.3,0.5c7.4,3.3,15.2,4.9,23.6,4.9c14,0,21-4.6,21-13.8c0-2.4-0.9-4.4-2.7-6c-1.8-1.6-4-2.9-6.7-3.8
			c-2.6-0.9-6.4-2-11.3-3.3c-6.5-1.7-11.7-3.3-15.7-4.9c-4-1.6-7.4-3.9-10.3-7c-2.9-3.1-4.3-7.3-4.3-12.5c0-4.6,1.2-8.7,3.6-12.4
			c2.4-3.7,5.9-6.7,10.6-8.9c4.7-2.2,10.3-3.3,16.9-3.3c8.8,0,16.8,1.3,23.9,4c2.2,0.8,3.4,2.4,3.4,4.8c0,1.3-0.4,2.4-1.3,3.5
			c-0.9,1-2,1.6-3.5,1.6c-0.5,0-1.1-0.2-1.9-0.5c-6.2-2.2-12.7-3.2-19.3-3.2c-6.3,0-11.5,1.2-15.4,3.6c-4,2.4-5.9,5.8-5.9,10.1
			c0,2.9,0.9,5.2,2.8,7c1.9,1.8,4.2,3.2,7.1,4.2c2.8,1,6.7,2.1,11.6,3.2c6.3,1.5,11.4,3,15.3,4.6c3.9,1.5,7.2,3.9,10,7.1
			c2.8,3.2,4.1,7.5,4.1,13c0,4.5-1.3,8.5-3.8,12.1c-2.6,3.6-6.2,6.3-10.8,8.3c-4.6,2-10,3-16.1,3C66.3,510.6,56.8,508.7,47.9,504.9z
			"/>
		<path class="st4" d="M149.4,478.9v25.7c0,1.5-0.5,2.8-1.6,3.8s-2.4,1.6-3.9,1.6c-1.5,0-2.8-0.5-3.8-1.6c-1-1-1.6-2.3-1.6-3.8
			v-73.4c0-1.5,0.5-2.8,1.6-3.9c1-1.1,2.3-1.6,3.8-1.6h27.4c7.6,0,13.8,1.3,18.6,3.8c4.8,2.6,8.2,5.8,10.3,9.8c2.1,4,3.1,8.3,3.1,13
			c0,4.6-1,9-3.1,13c-2.1,4-5.5,7.3-10.3,9.8c-4.8,2.6-11,3.8-18.6,3.8h-11.3v-10.3h10.2c8.2,0,13.9-1.6,17.2-4.7
			c3.3-3.1,5-7,5-11.6c0-4.6-1.7-8.5-5-11.6c-3.3-3.1-9.1-4.7-17.2-4.7h-20.8v32.6"/>
		<path class="st4" d="M249.6,505.1c-6.3-3.7-11.2-8.8-14.6-15.2c-3.4-6.5-5.2-13.9-5.4-22.3c0.2-8.4,2-15.8,5.4-22.3
			c3.4-6.5,8.3-11.6,14.6-15.2c6.3-3.7,13.7-5.5,22.1-5.5c8.4,0,15.7,1.8,22,5.5c6.3,3.7,11.2,8.8,14.6,15.3
			c3.5,6.5,5.3,13.9,5.5,22.3c-0.2,8.3-2,15.7-5.5,22.3c-3.5,6.5-8.4,11.6-14.6,15.3c-6.3,3.7-13.6,5.5-22,5.5
			C263.3,510.6,256,508.8,249.6,505.1z M288.4,496.1c4.7-2.9,8.3-6.8,10.8-11.8c2.5-5,3.7-10.6,3.7-16.8s-1.2-11.8-3.7-16.8
			c-2.5-5-6.1-8.9-10.8-11.8c-4.7-2.9-10.3-4.3-16.7-4.3c-6.5,0-12.1,1.4-16.7,4.3c-4.7,2.9-8.3,6.8-10.7,11.8
			c-2.5,5-3.7,10.6-3.7,16.8s1.2,11.8,3.7,16.8c2.5,5,6.1,8.9,10.7,11.8c4.7,2.9,10.3,4.3,16.7,4.3
			C278.1,500.4,283.7,499,288.4,496.1z"/>
		<path class="st4" d="M362,446v58.6c0,1.5,0.5,2.8,1.6,3.8c1,1,2.3,1.6,3.8,1.6c1.5,0,2.8-0.5,3.9-1.6s1.6-2.3,1.6-3.8V446H362z"/>
		<path class="st4" d="M372.9,435.9h24.4c1.4,0,2.7-0.5,3.7-1.4c1-1,1.5-2.2,1.5-3.6c0-1.4-0.5-2.7-1.5-3.7c-1-1-2.2-1.5-3.7-1.5
			h-59.8c-1.4,0-2.6,0.5-3.6,1.5c-1,1-1.4,2.2-1.4,3.7c0,1.4,0.5,2.6,1.4,3.6s2.2,1.4,3.6,1.4H362H372.9z"/>
	</g>
</g>
</svg>
