<?xml version="1.0" encoding="utf-8"?>
<!-- Generator: Adobe Illustrator 24.0.1, SVG Export Plug-In . SVG Version: 6.00 Build 0)  -->
<svg version="1.1" id="Layer_1" xmlns="http://www.w3.org/2000/svg" xmlns:xlink="http://www.w3.org/1999/xlink" x="0px" y="0px"
	 viewBox="0 0 1000 1000" style="enable-background:new 0 0 1000 1000;" xml:space="preserve">
<style type="text/css">
	.st0{fill:none;stroke:#000000;stroke-width:13;stroke-miterlimit:10;}
</style>
<path id="Bolt" class="st0" d="M468.8,366.9h92.7c0.3,0,0.5,0.3,0.3,0.6l-62.4,107.1c-0.1,0.3,0,0.6,0.3,0.6h36.7
	c0.3,0,0.5,0.4,0.3,0.6l-99.6,119.5c-0.3,0.3-0.8,0.1-0.7-0.3l31-119.1c0.1-0.2-0.1-0.5-0.4-0.5h-30.5c-0.3,0-0.4-0.2-0.4-0.5
	l32.2-107.7C468.5,367,468.6,366.9,468.8,366.9z"/>
<line id="flashOff" class="st0" x1="578.4" y1="548.1" x2="382.3" y2="386"/>
</svg>
