<?xml version="1.0" encoding="utf-8"?>
<!-- Generator: Adobe Illustrator 24.0.1, SVG Export Plug-In . SVG Version: 6.00 Build 0)  -->
<svg version="1.1" id="Layer_1" xmlns="http://www.w3.org/2000/svg" xmlns:xlink="http://www.w3.org/1999/xlink" x="0px" y="0px"
	 viewBox="0 0 204.4 241.5" style="enable-background:new 0 0 204.4 241.5;" xml:space="preserve">
<style type="text/css">
	.st0{fill:none;stroke:#000000;stroke-width:13;stroke-miterlimit:10;}
</style>
<g>
	<path id="Bolt" class="st0" d="M90.6,6.5h92.7c0.3,0,0.5,0.3,0.3,0.6l-62.4,107.1c-0.1,0.3,0,0.6,0.3,0.6h36.7
		c0.3,0,0.5,0.4,0.3,0.6L58.9,234.9c-0.3,0.3-0.8,0.1-0.7-0.3l31-119.1c0.1-0.2-0.1-0.5-0.4-0.5H58.3c-0.3,0-0.4-0.2-0.4-0.5
		L90.1,6.8C90.3,6.6,90.4,6.5,90.6,6.5z"/>
	<line id="flashOff" class="st0" x1="200.2" y1="187.7" x2="4.1" y2="25.6"/>
</g>
</svg>
