<?xml version="1.0" encoding="utf-8"?>
<!-- Generator: Adobe Illustrator 24.0.1, SVG Export Plug-In . SVG Version: 6.00 Build 0)  -->
<svg version="1.1" id="Layer_1" xmlns="http://www.w3.org/2000/svg" xmlns:xlink="http://www.w3.org/1999/xlink" x="0px" y="0px"
	 viewBox="0 0 375.6 241.6" style="enable-background:new 0 0 375.6 241.6;" xml:space="preserve">
<style type="text/css">
	.st0{fill:none;stroke:#000000;stroke-width:13;stroke-miterlimit:10;}
</style>
<g>
	<path class="st0" d="M230.4,25.5h55.2c3.9,0,7.1,3.2,7.1,7.1v108.7c0,3.9-3.2,7.1-7.1,7.1H107.4c-3.9,0-7.1-3.2-7.1-7.1V32.6
		c0-3.9,3.2-7.1,7.1-7.1H162c3,0,5.7-1.9,6.7-4.8l3.1-9.4c1-2.9,3.7-4.8,6.7-4.8h36c3.2,0,6,2.2,6.8,5.3l2.2,8.5
		C224.4,23.4,227.2,25.5,230.4,25.5z"/>
	
		<ellipse transform="matrix(8.248060e-02 -0.9966 0.9966 8.248060e-02 93.6542 275.5254)" class="st0" cx="196.5" cy="86.9" rx="40" ry="40"/>
	<path class="st0" d="M156.5,236.2l37.4-25.4c1.2-0.8,0.6-2.6-0.8-2.6c-61,1.9-286.3-27.7-135.5-71.2"/>
	<path class="st0" d="M243.5,205.6c52.4,0.3,192.2-29,88.1-66.4"/>
</g>
</svg>
