<?xml version="1.0" encoding="utf-8"?>
<!-- Generator: Adobe Illustrator 24.0.1, SVG Export Plug-In . SVG Version: 6.00 Build 0)  -->
<svg version="1.1" id="Layer_1" xmlns="http://www.w3.org/2000/svg" xmlns:xlink="http://www.w3.org/1999/xlink" x="0px" y="0px"
	 viewBox="0 0 1000 1000" style="enable-background:new 0 0 1000 1000;" xml:space="preserve">
<style type="text/css">
	.st0{fill:none;stroke:#000000;stroke-width:13;stroke-miterlimit:10;}
</style>
<path class="st0" d="M529.5,412.5h55.2c3.9,0,7.1,3.2,7.1,7.1v108.7c0,3.9-3.2,7.1-7.1,7.1H406.5c-3.9,0-7.1-3.2-7.1-7.1V419.6
	c0-3.9,3.2-7.1,7.1-7.1h54.6c3,0,5.7-1.9,6.7-4.8l3.1-9.4c1-2.9,3.7-4.8,6.7-4.8h36c3.2,0,6,2.2,6.8,5.3l2.2,8.5
	C523.5,410.4,526.3,412.5,529.5,412.5z"/>
<circle class="st0" cx="495.6" cy="473.9" r="40"/>
<path class="st0" d="M455.6,623.2l37.4-25.4c1.2-0.8,0.6-2.6-0.8-2.6c-61,1.9-286.3-27.7-135.5-71.2"/>
<path class="st0" d="M542.6,592.6c52.4,0.3,192.2-29,88.1-66.4"/>
</svg>
