<?xml version="1.0" encoding="utf-8"?>
<!-- Generator: Adobe Illustrator 24.0.1, SVG Export Plug-In . SVG Version: 6.00 Build 0)  -->
<svg version="1.1" id="svg" xmlns="http://www.w3.org/2000/svg" xmlns:xlink="http://www.w3.org/1999/xlink" x="0px" y="0px"
	 viewBox="0 0 357.3 85.6" style="enable-background:new 0 0 357.3 85.6;" xml:space="preserve">
<style type="text/css">
	.st0{fill:#BC6F27;}
</style>
<path id="S" class="st0" d="M3.4,79.6c-1-0.4-1.8-1.1-2.4-2c-0.6-0.9-1-1.9-1-2.9c0-1.4,0.5-2.5,1.4-3.5s2.1-1.5,3.5-1.5
	c0.8,0,1.6,0.2,2.3,0.5c7.4,3.3,15.2,4.9,23.6,4.9c14,0,21-4.6,21-13.8c0-2.4-0.9-4.4-2.7-6c-1.8-1.6-4-2.9-6.7-3.8
	c-2.6-0.9-6.4-2-11.3-3.3c-6.5-1.7-11.7-3.3-15.7-4.9s-7.4-3.9-10.3-7C2.2,33.2,0.8,29,0.8,23.8c0-4.6,1.2-8.7,3.6-12.4
	C6.8,7.7,10.3,4.7,15,2.5c4.7-2.2,10.3-3.3,16.9-3.3c8.8,0,16.8,1.3,23.9,4C58,4,59.2,5.6,59.2,8c0,1.3-0.4,2.4-1.3,3.5
	c-0.9,1-2,1.6-3.5,1.6c-0.5,0-1.1-0.2-1.9-0.5c-6.2-2.2-12.7-3.2-19.3-3.2c-6.3,0-11.5,1.2-15.4,3.6c-4,2.4-5.9,5.8-5.9,10.1
	c0,2.9,0.9,5.2,2.8,7c1.9,1.8,4.2,3.2,7.1,4.2c2.8,1,6.7,2.1,11.6,3.2c6.3,1.5,11.4,3,15.3,4.6c3.9,1.5,7.2,3.9,10,7.1
	s4.1,7.5,4.1,13c0,4.5-1.3,8.5-3.8,12.1c-2.6,3.6-6.2,6.3-10.8,8.3c-4.6,2-10,3-16.1,3C21.8,85.3,12.3,83.4,3.4,79.6z"/>
<path id="P" class="st0" d="M104.4,43.3v-33h21.3c8.2,0.4,13.9,2,17.2,5.1c3.3,3.1,5,7,5,11.6s-1.7,8.5-5,11.6
	c-3.3,3.1-17.2,4.7-17.2,4.7h-10.3v10h11.1c7.7,0,13.9-1.3,18.8-3.8c4.8-2.6,8.3-5.8,10.4-9.8s3.1-8.3,3.1-13c0-4.6-1-9-3.1-13
	s-5.6-7.3-10.4-9.8c-4.8-2.6-11.1-3.8-18.8-3.8H98.8c-1.5,0-2.8,0.5-3.8,1.6s-1.6,2.4-1.6,3.9v73.1c0,1.5,0.5,2.8,1.6,3.8
	c1,1,2.3,1.6,3.8,1.6s2.8-0.5,3.9-1.6c1.1-1.1,1.6-2.3,1.6-3.8V53.4L104.4,43.3L104.4,43.3z"/>
<path id="O" class="st0" d="M205.1,79.8c-6.3-3.7-11.2-8.8-14.6-15.2c-3.4-6.5-5.2-13.9-5.4-22.3c0.2-8.4,2-15.8,5.4-22.3
	s8.3-11.6,14.6-15.2c6.3-3.7,13.7-5.5,22.1-5.5s15.7,1.8,22,5.5s11.2,8.8,14.6,15.3c3.5,6.5,5.3,13.9,5.5,22.3
	c-0.2,8.3-2,15.7-5.5,22.3c-3.5,6.5-8.4,11.6-14.6,15.3c-6.3,3.7-13.6,5.5-22,5.5C218.8,85.3,211.4,83.5,205.1,79.8z M243.9,70.8
	c4.7-2.9,8.3-6.8,10.8-11.8s3.7-10.6,3.7-16.8s-1.2-11.8-3.7-16.8s-6.1-8.9-10.8-11.8c-4.7-2.9-10.3-4.3-16.7-4.3
	c-6.5,0-12.1,1.4-16.7,4.3c-4.7,2.9-8.3,6.8-10.7,11.8c-2.5,5-3.7,10.6-3.7,16.8s1.2,11.8,3.7,16.8s6.1,8.9,10.7,11.8
	c4.6,2.9,10.3,4.3,16.7,4.3C233.6,75.1,239.2,73.7,243.9,70.8z"/>
<path id="T1" class="st0" d="M317.4,20.3v58.6c0,1.5,0.5,2.8,1.6,3.8c1,1,2.3,1.6,3.8,1.6s2.8-0.5,3.9-1.6s1.6-2.3,1.6-3.8V20.3
	H317.4z"/>
<path id="T2" class="st0" d="M328.3,10.3h23.9c1.4,0,2.6-0.5,3.6-1.4c1-1,1.5-2.2,1.5-3.5c0-1.4-0.5-2.6-1.5-3.6s-2.2-1.5-3.6-1.5
	h-58.6c-1.4,0-2.5,0.5-3.5,1.5s-1.4,2.2-1.4,3.6s0.5,2.5,1.4,3.5s2.2,1.4,3.5,1.4h24H328.3z"/>
</svg>
