<?xml version="1.0" encoding="utf-8"?>
<!-- Generator: Adobe Illustrator 24.0.1, SVG Export Plug-In . SVG Version: 6.00 Build 0)  -->
<svg version="1.1" id="svg" xmlns="http://www.w3.org/2000/svg" xmlns:xlink="http://www.w3.org/1999/xlink" x="0px" y="0px"
	 viewBox="0 0 433.1 510.3" style="enable-background:new 0 0 433.1 510.3;" xml:space="preserve">
<style type="text/css">
	.st0{fill:#BC6F27;}
	.st1{fill:#F5D8A1;stroke:#BC6F27;stroke-width:14;stroke-miterlimit:10;}
	.st2{fill:#BC6F27;stroke:#BC6F27;stroke-width:2;stroke-miterlimit:10;}
	.st3{fill:#EDBB18;}
</style>
<polygon id="BL" class="st0" points="14,368.3 89,368.3 89,382.3 0,382.3 0,368.3 0,293.3 14,293.3 "/>
<polygon id="BR" class="st0" points="419,368.3 344,368.3 344,382.3 433,382.3 433,368.3 433,293.3 419,293.3 "/>
<polygon id="TR" class="st0" points="419,14.3 344,14.3 344,0.3 433,0.3 433,14.3 433,89.3 419,89.3 "/>
<polygon id="TL_1_" class="st0" points="14,14.3 89,14.3 89,0.3 0,0.3 0,14.3 0,89.3 14,89.3 "/>
<path id="S" class="st0" d="M47,504.6c-1-0.4-1.8-1.1-2.4-2c-0.6-0.9-1-1.9-1-2.9c0-1.4,0.5-2.5,1.4-3.5s2.1-1.5,3.5-1.5
	c0.8,0,1.6,0.2,2.3,0.5c7.4,3.3,15.2,4.9,23.6,4.9c14,0,21-4.6,21-13.8c0-2.4-0.9-4.4-2.7-6c-1.8-1.6-4-2.9-6.7-3.8
	c-2.6-0.9-6.4-2-11.3-3.3c-6.5-1.7-11.7-3.3-15.7-4.9s-7.4-3.9-10.3-7c-2.9-3.1-4.3-7.3-4.3-12.5c0-4.6,1.2-8.7,3.6-12.4
	c2.4-3.7,5.9-6.7,10.6-8.9c4.7-2.2,10.3-3.3,16.9-3.3c8.8,0,16.8,1.3,23.9,4c2.2,0.8,3.4,2.4,3.4,4.8c0,1.3-0.4,2.4-1.3,3.5
	c-0.9,1-2,1.6-3.5,1.6c-0.5,0-1.1-0.2-1.9-0.5c-6.2-2.2-12.7-3.2-19.3-3.2c-6.3,0-11.5,1.2-15.4,3.6c-4,2.4-5.9,5.8-5.9,10.1
	c0,2.9,0.9,5.2,2.8,7c1.9,1.8,4.2,3.2,7.1,4.2c2.8,1,6.7,2.1,11.6,3.2c6.3,1.5,11.4,3,15.3,4.6c3.9,1.5,7.2,3.9,10,7.1
	s4.1,7.5,4.1,13c0,4.5-1.3,8.5-3.8,12.1c-2.6,3.6-6.2,6.3-10.8,8.3c-4.6,2-10,3-16.1,3C65.4,510.3,55.9,508.4,47,504.6z"/>
<path id="P" class="st0" d="M148,468.3v-33h21.3c8.2,0.4,13.9,2,17.2,5.1s5,7,5,11.6s-1.7,8.5-5,11.6s-17.2,4.7-17.2,4.7H159v10
	h11.1c7.7,0,13.9-1.3,18.8-3.8c4.8-2.6,8.3-5.8,10.4-9.8c2.1-4,3.1-8.3,3.1-13c0-4.6-1-9-3.1-13c-2.1-4-5.6-7.3-10.4-9.8
	c-4.8-2.6-11.1-3.8-18.8-3.8h-27.7c-1.5,0-2.8,0.5-3.8,1.6c-1,1.1-1.6,2.4-1.6,3.9v73.1c0,1.5,0.5,2.8,1.6,3.8c1,1,2.3,1.6,3.8,1.6
	c1.5,0,2.8-0.5,3.9-1.6c1.1-1.1,1.6-2.3,1.6-3.8v-25.3V468.3L148,468.3z"/>
<path id="O" class="st0" d="M248.7,504.8c-6.3-3.7-11.2-8.8-14.6-15.2c-3.4-6.5-5.2-13.9-5.4-22.3c0.2-8.4,2-15.8,5.4-22.3
	s8.3-11.6,14.6-15.2c6.3-3.7,13.7-5.5,22.1-5.5s15.7,1.8,22,5.5s11.2,8.8,14.6,15.3c3.5,6.5,5.3,13.9,5.5,22.3
	c-0.2,8.3-2,15.7-5.5,22.3c-3.5,6.5-8.4,11.6-14.6,15.3c-6.3,3.7-13.6,5.5-22,5.5C262.4,510.3,255,508.5,248.7,504.8z M287.5,495.8
	c4.7-2.9,8.3-6.8,10.8-11.8s3.7-10.6,3.7-16.8s-1.2-11.8-3.7-16.8s-6.1-8.9-10.8-11.8c-4.7-2.9-10.3-4.3-16.7-4.3
	c-6.5,0-12.1,1.4-16.7,4.3c-4.7,2.9-8.3,6.8-10.7,11.8c-2.5,5-3.7,10.6-3.7,16.8s1.2,11.8,3.7,16.8s6.1,8.9,10.7,11.8
	s10.3,4.3,16.7,4.3C277.2,500.1,282.8,498.7,287.5,495.8z"/>
<path id="T1" class="st0" d="M361,445.3v58.6c0,1.5,0.5,2.8,1.6,3.8c1,1,2.3,1.6,3.8,1.6c1.5,0,2.8-0.5,3.9-1.6s1.6-2.3,1.6-3.8
	v-58.6H361z"/>
<path id="T2" class="st0" d="M371.9,435.3h23.9c1.4,0,2.6-0.5,3.6-1.4c1-1,1.5-2.2,1.5-3.5c0-1.4-0.5-2.6-1.5-3.6
	c-1-1-2.2-1.5-3.6-1.5h-58.6c-1.4,0-2.5,0.5-3.5,1.5c-1,1-1.4,2.2-1.4,3.6c0,1.4,0.5,2.5,1.4,3.5c0.9,1,2.2,1.4,3.5,1.4h24H371.9z"
	/>
<path id="Doge_3_" class="st1" d="M161.7,39.9c-0.2,0-0.2,0-0.3,0.1c-4.9,4.7-4,22.9-3.4,36.1c0.8,16.8,1,25.7-3.9,27.9
	c-7.5,3.5-14.7,7.6-21.3,12.4c-2.9,2-6.2,3.8-9.5,5.6c-4.8,2.5-9.7,5.1-12.8,8.5c-2.8,2.9-4.2,6.9-5.8,11c-1.2,3.2-2.4,6.5-4.3,9.5
	c-12,19.4-18.3,42.1-18.3,65.7c0,69.4,58.3,125.8,130,125.8s130-56.4,130-125.8c0-28.8-10.3-60.6-26.2-81.1
	c-4-5.1-5.3-16.3-5.4-17.6l-0.1-0.6l0.2-0.6c8.6-25.2,6.2-44.2,5-53.4c-0.1-0.8-0.2-1.5-0.3-2.2c-0.6-4.9-1.6-7.7-4.5-11.8
	c-4.5,0.1-18.5,15.2-27.7,25.2c-7.5,8.2-14.6,15.9-19.6,19.6c-1.4,1.1-5.5,3.5-8.3,3.6c-0.7,0-1.4,0.1-2.1,0.1l0,0
	c-7,0-13.9-1.8-20.6-3.5c-6.7-1.7-13.5-3.5-20.5-3.5c-2,0-3.7,0.1-5.1,0.2c-1.1,0.1-2,0.1-2.8,0.1c-0.9,0-1.5-0.1-2.1-0.3
	c-4.2-1.2-9.5-7.6-10.4-11.4c-0.5-2.4-5.8-12.3-12.9-22.3C169.2,43.6,163.6,39.9,161.7,39.9z"/>
<circle id="Record" class="st2" cx="49.6" cy="48.5" r="12"/>
<path id="Shadow_1_" class="st3" d="M120.4,295.9c0,0,26.1,36.4,88.6,39.6c72.1,3.8,127.7-52.7,127.7-122.1
	c0-28.8-12.4-55.9-28.3-76.4C321.9,265.3,256.9,316.2,120.4,295.9z"/>
<path id="Face" class="st0" d="M138.5,227.9c1.7-0.6,7.8-0.6-0.7-9.5c11.5,12.8,35.4-15.4,3.9-24.3c-8.5-2.4-32.1-1.5-28.7,13.7
	c0.7,1.6,7.9,8.3,8.2,7.6c-9.4-1.4-3.1,12.4,6.5,13.6C129.5,229.3,136.7,228.5,138.5,227.9z M139,245.6
	c-18.5-9.1-33.9,3.8-16.4,10.3c12.4,4.6,13.9,2.4,25.2,4.2c7.5,1.2,50.9,3.5,51.6-10c-1.8,0.1-0.2,3.6,0,0
	c-13.4,1.2-26.2,5.3-33,5.2c-4.4,0-9.8-1.3-15.2-3.1C151.2,252.2,142.1,247.1,139,245.6z M215.2,158.3c11.8-0.7,21.6,14.3,21.6,14.3
	s-9.9,15.8-20.6,15.4c-10.7-0.3-10.3-4.1-17.8-5.9C190.9,180.4,203.4,159,215.2,158.3z M211.9,165.8c1.6-2.1,6.2,3,6.8-2.6
	c0-0.5,0.1-0.5-7.2-0.4s-12.5,15.3-7.9,18c3.5,2,3.9,2,3.8,0.7C206.4,177.7,206.4,168.8,211.9,165.8z M139.6,145.3
	c9,0,11.9,5.8,12.1,9.1c0.3,5.6-5.6,16-11.4,16c-2.7,0-10-3.8-10.7-9.7C128.7,154,134.9,145.3,139.6,145.3z M140.6,148.7
	c2.3-1.9-8.6,2.2-8.1,9.6c0.6,7.4,8.1,10.7,6.5,8.5C139,166.8,130.5,157,140.6,148.7z M147.9,151.2c-0.9,0-1.6,0.8-1.6,1.7
	c0,1,0.7,1.7,1.6,1.7s1.6-0.8,1.6-1.7S148.8,151.2,147.9,151.2z"/>
</svg>
