<?xml version="1.0" encoding="utf-8"?>
<!-- Generator: Adobe Illustrator 24.0.1, SVG Export Plug-In . SVG Version: 6.00 Build 0)  -->
<svg version="1.1" id="svg" xmlns="http://www.w3.org/2000/svg" xmlns:xlink="http://www.w3.org/1999/xlink" x="0px" y="0px"
	 viewBox="0 0 433 382" style="enable-background:new 0 0 433 382;" xml:space="preserve">
<style type="text/css">
	.st0{fill:#BC6F27;}
	.st1{fill:#F5D8A1;stroke:#BC6F27;stroke-width:14;stroke-miterlimit:10;}
	.st2{fill:#BC6F27;stroke:#BC6F27;stroke-width:2;stroke-miterlimit:10;}
	.st3{fill:#EDBB18;}
</style>
<polygon id="BL" class="st0" points="14,368 89,368 89,382 0,382 0,368 0,293 14,293 "/>
<polygon id="BR" class="st0" points="419,368 344,368 344,382 433,382 433,368 433,293 419,293 "/>
<polygon id="TR" class="st0" points="419,14 344,14 344,0 433,0 433,14 433,89 419,89 "/>
<polygon id="TL_1_" class="st0" points="14,14 89,14 89,0 0,0 0,14 0,89 14,89 "/>
<path id="Doge_3_" class="st1" d="M161.7,39.6c-0.2,0-0.2,0-0.3,0.1c-4.9,4.7-4,22.9-3.4,36.1c0.8,16.8,1,25.7-3.9,27.9
	c-7.5,3.5-14.7,7.6-21.3,12.4c-2.9,2-6.2,3.8-9.5,5.6c-4.8,2.5-9.7,5.1-12.8,8.5c-2.8,2.9-4.2,6.9-5.8,11c-1.2,3.2-2.4,6.5-4.3,9.5
	c-12,19.4-18.3,42.1-18.3,65.7c0,69.4,58.3,125.8,130,125.8s130-56.4,130-125.8c0-28.8-10.3-60.6-26.2-81.1
	c-4-5.1-5.3-16.3-5.4-17.6l-0.1-0.6l0.2-0.6c8.6-25.2,6.2-44.2,5-53.4c-0.1-0.8-0.2-1.5-0.3-2.2c-0.6-4.9-1.6-7.7-4.5-11.8
	c-4.5,0.1-18.5,15.2-27.7,25.2c-7.5,8.2-14.6,15.9-19.6,19.6c-1.4,1.1-5.5,3.5-8.3,3.6c-0.7,0-1.4,0.1-2.1,0.1l0,0
	c-7,0-13.9-1.8-20.6-3.5c-6.7-1.7-13.5-3.5-20.5-3.5c-2,0-3.7,0.1-5.1,0.2c-1.1,0.1-2,0.1-2.8,0.1c-0.9,0-1.5-0.1-2.1-0.3
	c-4.2-1.2-9.5-7.6-10.4-11.4c-0.5-2.4-5.8-12.3-12.9-22.3C169.2,43.3,163.6,39.6,161.7,39.6z"/>
<circle id="Record" class="st2" cx="49.6" cy="48.2" r="12"/>
<path id="Shadow_1_" class="st3" d="M120.4,295.6c0,0,26.1,36.4,88.6,39.6c72.1,3.8,127.7-52.7,127.7-122.1
	c0-28.8-12.4-55.9-28.3-76.4C321.9,265,256.9,315.9,120.4,295.6z"/>
<path id="Face" class="st0" d="M138.5,227.6c1.7-0.6,7.8-0.6-0.7-9.5c11.5,12.8,35.4-15.4,3.9-24.3c-8.5-2.4-32.1-1.5-28.7,13.7
	c0.7,1.6,7.9,8.3,8.2,7.6c-9.4-1.4-3.1,12.4,6.5,13.6C129.5,229,136.7,228.2,138.5,227.6z M139,245.3c-18.5-9.1-33.9,3.8-16.4,10.3
	c12.4,4.6,13.9,2.4,25.2,4.2c7.5,1.2,50.9,3.5,51.6-10c-1.8,0.1-0.2,3.6,0,0c-13.4,1.2-26.2,5.3-33,5.2c-4.4,0-9.8-1.3-15.2-3.1
	C151.2,251.9,142.1,246.8,139,245.3z M215.2,158c11.8-0.7,21.6,14.3,21.6,14.3s-9.9,15.8-20.6,15.4c-10.7-0.3-10.3-4.1-17.8-5.9
	C190.9,180.1,203.4,158.7,215.2,158z M211.9,165.5c1.6-2.1,6.2,3,6.8-2.6c0-0.5,0.1-0.5-7.2-0.4s-12.5,15.3-7.9,18
	c3.5,2,3.9,2,3.8,0.7C206.4,177.4,206.4,168.5,211.9,165.5z M139.6,145c9,0,11.9,5.8,12.1,9.1c0.3,5.6-5.6,16-11.4,16
	c-2.7,0-10-3.8-10.7-9.7C128.7,153.7,134.9,145,139.6,145z M140.6,148.4c2.3-1.9-8.6,2.2-8.1,9.6c0.6,7.4,8.1,10.7,6.5,8.5
	C139,166.5,130.5,156.7,140.6,148.4z M147.9,150.9c-0.9,0-1.6,0.8-1.6,1.7c0,1,0.7,1.7,1.6,1.7s1.6-0.8,1.6-1.7
	S148.8,150.9,147.9,150.9z"/>
</svg>
